<svg xmlns="http://www.w3.org/2000/svg" width="22" height="19" viewBox="0 0 22 19"><g><g><path fill="#fd9a1e" d="M22 6.334v2.46c-.002.663-.884 1.182-2.2 1.569v2.3c0 .11-.025.216-.072.317.757.303 1.14.661 1.166 1.094h.006v2.46c-.003 1.172-2.749 1.899-5.8 2.237-.022.004-.043.014-.067.014-.007 0-.013-.003-.02-.003-.588.064-1.185.112-1.777.149-.012 0-.023.006-.036.006-.007 0-.013-.004-.019-.004-.75.045-1.49.067-2.181.067-.691 0-1.43-.022-2.18-.067-.008 0-.013.004-.02.004-.013 0-.024-.005-.036-.006a38.6 38.6 0 0 1-1.778-.15c-.007 0-.012.004-.02.004-.023 0-.044-.01-.066-.013-3.051-.338-5.797-1.065-5.8-2.237v-2.46h.005a.753.753 0 0 1 .05-.22C.437 13.525 0 13.132 0 12.665v-2.462h.004C.039 9.61.759 9.147 2.2 8.791V6.334h.005a.759.759 0 0 1 .033-.18C.901 5.764.002 5.24 0 4.573V2.11h.006C.138.06 8.894 0 9.9 0c1.006 0 9.762.061 9.894 2.111h.006v2.46a.764.764 0 0 1-.079.33c1.492.36 2.239.83 2.275 1.434zm-2.933 6.33v-1.456a5.54 5.54 0 0 1-1.1.484v1.678c.422-.16.742-.324.935-.485l.125-.106c.026-.04.04-.08.04-.115zm-7.57 1.73c.08-.006.158-.01.237-.012v-1.757c-.368.016-.737.025-1.106.034h-.059l-.302.005v1.757l.398-.004c.054 0 .108-.002.161-.003.227-.004.45-.012.67-.02zm-2.177.026l.213.003v-1.76l-.302-.003h-.058c-.37-.008-.739-.019-1.106-.035v1.757c.197.008.395.018.595.024a40.807 40.807 0 0 0 .563.013l.095.001zm-6.583-.768c.282.076.593.148.93.215V12.15c-.39-.074-.758-.154-1.1-.244v1.701l.035.01c.044.012.09.022.135.035zm7.535 2.877c-.369-.006-.738-.018-1.105-.034v1.757c.47.023.96.037 1.466.04v-1.758c-.1 0-.202-.003-.302-.004l-.059-.001zm1.397 0l-.302.005v1.759c.506-.005.995-.019 1.466-.04v-1.758a53.56 53.56 0 0 1-1.106.034h-.058zm1.898-.074v1.754a31.38 31.38 0 0 0 1.1-.09V16.37c-.361.034-.728.061-1.1.085zm1.833 1.579c.388-.048.755-.102 1.1-.161v-1.727c-.355.054-.722.104-1.1.148zm1.833-.296c.406-.084.774-.17 1.1-.26v-1.701c-.342.088-.71.17-1.1.243zM3.666 15.777v1.701c.327.09.695.176 1.1.26V16.02c-.389-.072-.757-.155-1.1-.243zM5.5 17.873c.345.06.712.113 1.1.162v-1.741a30.23 30.23 0 0 1-1.1-.148zm1.833.245c.353.035.72.067 1.1.092v-1.755c-.372-.024-.739-.051-1.1-.085zm0-3.779v-1.753c-.371-.024-.739-.054-1.1-.086v1.746c.027.002.053.006.08.01.036.002.073.007.11.01.298.028.602.051.91.073zM4.4 12.275v1.727c.345.059.712.113 1.1.161v-1.74a28.102 28.102 0 0 1-1.1-.148zm8.47 2.035c.238-.018.47-.04.697-.064V12.5c-.361.032-.729.062-1.1.085v1.755a12.445 12.445 0 0 0 .403-.03zm2.53-.308v-1.727c-.355.055-.722.106-1.1.149v1.74c.387-.047.754-.103 1.1-.162zm.733-.135c.406-.083.774-.168 1.1-.26v-1.7c-.342.09-.71.169-1.1.243zM11.2 10.546c.174.003.354.003.533.005V8.793c-.101 0-.202-.002-.303-.004h-.057a44.64 44.64 0 0 1-1.106-.034v1.756l.042.002c.265.013.534.022.81.03.027 0 .054 0 .081.003zM2.964 5.618c.182.045.372.089.567.129l.136.028V4.058c-.39-.074-.758-.157-1.1-.243v1.699c.126.034.258.07.397.104zm6.208-1.05c-.369-.01-.738-.018-1.105-.034v1.754c.482.024.973.035 1.466.04V4.57l-.302-.002h-.059zm1.397 0l-.302.002v1.758c.132-.001.265-.001.396-.004l.119-.002c.254-.005.505-.012.75-.023h.016c.063-.004.123-.008.185-.01V4.533c-.367.016-.736.025-1.106.033h-.058zm8.498.002V3.115a5.571 5.571 0 0 1-1.1.484v1.674c.381-.142.678-.288.872-.433l.133-.1.01.002c.055-.061.085-.118.085-.172zM15.4 5.907V4.183c-.355.055-.722.105-1.1.148v1.737a24.04 24.04 0 0 0 1.1-.16zm1.833-.398V3.815c-.342.086-.71.169-1.1.243v1.714c.402-.081.772-.17 1.1-.263zm-4.766-1.016v1.753c.379-.027.746-.059 1.1-.093V4.407c-.361.033-.729.062-1.1.086zM7.333 6.245V4.493a40.97 40.97 0 0 1-1.1-.086v1.747c.359.035.727.064 1.1.09zM4.4 4.183V5.91l.12.02c.203.032.41.063.622.094l.138.019c.072.01.147.016.22.025V4.33a24.732 24.732 0 0 1-1.1-.148zm5.133 6.286V8.715a39.067 39.067 0 0 1-1.1-.085v1.746l.03.003c.047.005.095.008.143.016.224.021.453.039.688.058l.148.01c.03.003.062.003.091.006zm-2.488-.265c.21.032.43.062.655.09v-1.74a28.145 28.145 0 0 1-1.1-.149v1.726a54.068 54.068 0 0 0 .445.073zM4.767 8.037v1.691c.327.095.695.183 1.1.265V8.28c-.39-.072-.758-.154-1.1-.242zm-1.834-.7v1.456c0 .011.004.023.007.035l.024.038c.121.195.493.413 1.07.628V7.82a5.567 5.567 0 0 1-1.1-.484zm9.836 1.452c-.1.002-.202.004-.302.004v1.757c.495-.004.984-.017 1.466-.041V8.755a53.54 53.54 0 0 1-1.164.034zm4.831 1.344V8.405c-.355.056-.722.105-1.1.149v1.738l.284-.035.292-.04c.167-.025.329-.051.49-.078l.034-.006zm-2.478.301c.219-.016.432-.036.645-.059V8.63c-.361.033-.729.061-1.1.085v1.751c.138-.01.28-.016.416-.027a.51.51 0 0 0 .039-.005zm4.312-.697v-1.7c-.343.088-.711.17-1.1.242v1.718a1.1 1.1 0 0 1 .087-.017c.095-.02.188-.042.28-.062.197-.045.39-.09.572-.14l.16-.04zm-.287-4.243l-.073.042c-.04.025-.085.05-.129.073-.038.022-.074.043-.115.065-.09.047-.189.092-.29.134-.027.013-.056.024-.083.036a7.057 7.057 0 0 1-.362.138c-.122.045-.25.085-.382.129a14.397 14.397 0 0 1-.372.105c-1.719.472-4.188.776-6.852.813a38.623 38.623 0 0 1-2.782-.058l-.007.002-.014-.002a34.837 34.837 0 0 1-1.818-.15l-.001.002c-.003 0-.005-.003-.008-.003a26.482 26.482 0 0 1-2.836-.462l-.078-.018c-.005.01-.005.014-.006.02.041.237.604.554 1.604.851 1.296.384 3.327.737 5.9.845.13.006.262.011.396.014a37.21 37.21 0 0 0 2.19.011l.332-.01.397-.014c2.572-.11 4.602-.462 5.9-.846 1.007-.3 1.57-.617 1.604-.855-.041-.147-.474-.519-2.115-.862zM.739 2.14c.044.239.606.553 1.603.849 1.298.384 3.328.735 5.9.845.132.005.263.011.397.015.11.003.22.007.332.009a37.18 37.18 0 0 0 1.858 0c.112-.002.222-.006.332-.01.134-.003.265-.01.397-.014 2.572-.11 4.602-.46 5.9-.845.996-.296 1.559-.61 1.603-.85C19.004 1.617 15.946.704 9.9.704 3.854.703.796 1.616.739 2.14zm1.094 3.144V3.6a5.568 5.568 0 0 1-1.1-.484V4.57c0 .2.387.458 1.1.714zM.737 10.225c.033.24.597.555 1.605.855 1.298.386 3.328.738 5.9.848.132.004.263.01.397.012a37.18 37.18 0 0 0 2.481.001c2.78-.084 4.968-.454 6.337-.86a6.923 6.923 0 0 0 1.085-.406c-1.23.254-2.683.431-4.233.52l-.009.001h-.005a37.03 37.03 0 0 1-4.394 0h-.004c-1.545-.087-2.964-.263-4.153-.505a14.674 14.674 0 0 1-.38-.08c-1.294-.287-2.333-.669-2.835-1.153l-.02-.017c-1.36.32-1.731.651-1.772.784zm.883 3.071l.004-.005.21.079v-1.678a5.686 5.686 0 0 1-1.1-.485v1.457c0 .178.31.403.886.632zm1.313 3.95v-1.684a5.566 5.566 0 0 1-1.1-.484v1.456c.001.199.387.457 1.1.712zm17.234-.712v-1.456c-.293.176-.664.34-1.1.484v1.684c.713-.257 1.1-.514 1.1-.712zm-.952-2.99c-.033.021-.073.043-.108.064a4.408 4.408 0 0 1-.22.127c-.642.342-1.58.618-2.662.832a27.755 27.755 0 0 1-2.268.342c-.009 0-.015.006-.023.006l-.007-.002c-.584.064-1.193.115-1.822.153H12.1h-.003c-.516.03-1.044.05-1.579.056a25.639 25.639 0 0 1-1.082.002 37.436 37.436 0 0 1-1.735-.058H7.7h-.002c-1.84-.106-3.545-.338-4.88-.666-.06-.016-.12-.029-.18-.044-.04-.01-.079-.02-.118-.032a6.438 6.438 0 0 1-.304-.085c-.012-.003-.023-.005-.035-.01a12.05 12.05 0 0 1-.339-.105c.07.234.63.54 1.6.826 1.298.385 3.328.738 5.9.846.133.005.265.012.4.015l.328.01a34.927 34.927 0 0 0 1.859 0 23.327 23.327 0 0 0 .729-.025c2.572-.108 4.602-.46 5.9-.844 1-.297 1.564-.614 1.604-.851-.024-.088-.224-.31-.947-.557zm2.052-4.75V7.336a5.57 5.57 0 0 1-1.1.484v1.685c.713-.257 1.1-.513 1.1-.713z"/></g></g></svg>