<svg xmlns="http://www.w3.org/2000/svg" width="21" height="24" viewBox="0 0 21 24"><g><g><path fill="#9fcc3a" d="M19.604 18.154c.427.56.612 1.184.539 1.804-.073.615-.394 1.177-.932 1.634-.234.198-.471.385-.702.562-.34.265-.663.514-.95.793-.006.012-.017.017-.022.025-.83.731-1.814 1.023-2.926.882-.096-.012-.202-.032-.302-.048-1.64-.318-3.042-1.15-4.085-1.833-2.727-1.821-5.021-4.2-6.821-7.076C1.92 12.51.995 10.349.473 8.069.26 7.14.007 5.732.295 4.291a3.683 3.683 0 0 1 1.32-2.184L3.455.605l.011-.01c.539-.416 1.137-.6 1.725-.525.587.075 1.116.4 1.526.94.278.337.544.694.796 1.043.126.178.26.357.392.53l1.153 1.528c.887 1.172.726 2.528-.41 3.446-.15.122-.302.251-.454.373-.401.33-.813.673-1.252.994.214.71.54 1.428 1.048 2.289 1.055 1.738 2.206 3.125 3.52 4.24.13.111.283.215.446.329.113.077.23.16.347.246l1.708-1.375c.547-.447 1.146-.633 1.738-.562.598.077 1.13.419 1.537.98zm-1.036.824l-2.328-3.086c-.005-.002-.005-.002-.009-.008-.13-.19-.352-.415-.65-.457-.304-.032-.588.137-.772.285l-1.85 1.497c-.091.074-.372.305-.772.252a1.026 1.026 0 0 1-.462-.188c-.018-.009-.036-.028-.054-.04a5.685 5.685 0 0 0-.445-.323 7.307 7.307 0 0 1-.553-.41c-1.426-1.208-2.67-2.708-3.799-4.575l-.004-.005c-.618-1.054-1.004-1.922-1.244-2.822l-.01-.047c-.052-.295-.08-.725.385-1.103.006-.01.017-.013.028-.018a28.01 28.01 0 0 0 1.353-1.062c.156-.121.308-.25.465-.38.573-.46.63-.95.183-1.544L6.876 3.421c-.134-.186-.27-.366-.4-.545a21.084 21.084 0 0 0-.76-.999c-.005-.011-.01-.013-.013-.02-.136-.18-.359-.402-.662-.44-.246-.03-.51.061-.774.263L2.423 3.169a2.32 2.32 0 0 0-.84 1.398c-.181.904-.132 1.887.169 3.19.486 2.126 1.36 4.158 2.758 6.418 1.698 2.707 3.861 4.952 6.426 6.663.938.622 2.199 1.366 3.618 1.644.071.013.149.022.22.033.752.094 1.355-.084 1.906-.565.341-.325.698-.607 1.048-.877.232-.18.447-.35.66-.533-.006.004-.006 0 0 0 .553-.466.615-.988.18-1.562z"/></g></g></svg>