<svg xmlns="http://www.w3.org/2000/svg" width="19" height="23" viewBox="0 0 19 23"><g><g><path fill="#9fcc3a" d="M5.903 10.936C4.19 8.867 4.475 5.325 4.506 4.987c.111-2.558 1.25-3.77 2.184-4.34.93-.565 1.9-.652 2.393-.652h.075c.899.023 1.704.248 2.393.675.925.566 2.046 1.779 2.157 4.317.031.338.316 3.88-1.396 5.95-.779.937-1.833 1.427-3.136 1.455h-.142c-1.303-.028-2.358-.518-3.131-1.456zm.894-.855c.556.676 1.307 1.016 2.286 1.023h.044c.983-.007 1.73-.347 2.29-1.023 1.415-1.702 1.104-4.943 1.1-4.974-.005-.01-.005-.026-.005-.04-.138-3.23-2.18-3.75-3.38-3.78h-.054c-.97 0-3.233.37-3.38 3.78 0 .01-.004.024-.004.04-.005.026-.307 3.28 1.103 4.974zM18.032 20.42a.62.62 0 0 1-.232.3c-.133.091-3.331 2.278-8.682 2.278-5.35 0-8.548-2.182-8.682-2.277a.596.596 0 0 1-.231-.3c-.236-.64-.231-1.91-.227-2.155v-.016c.005-.037.005-.075.005-.12.026-.94.084-3.142 2.015-3.855.013-.002.026-.008.044-.013 2.015-.55 3.674-1.785 3.692-1.8a.571.571 0 0 1 .836.16.664.664 0 0 1-.147.89c-.076.054-1.846 1.38-4.06 1.988-1.037.396-1.153 1.583-1.184 2.668 0 .045-.004.082-.004.12-.01.425.022 1.09.093 1.47.725.44 3.567 1.958 7.846 1.958 4.296 0 7.12-1.513 7.841-1.953.071-.379.098-1.043.094-1.47-.005-.04-.005-.077-.005-.118-.03-1.087-.146-2.273-1.183-2.671-2.215-.609-3.985-1.929-4.06-1.988a.667.667 0 0 1-.147-.892.575.575 0 0 1 .836-.157c.017.015 1.685 1.25 3.691 1.8.014.006.031.008.045.013 1.93.708 1.988 2.91 2.015 3.854 0 .043.004.082.004.12v.017c.005.245.01 1.517-.213 2.15z"/></g></g></svg>