<svg xmlns="http://www.w3.org/2000/svg" width="30" height="35" viewBox="0 0 30 35"><g><g><path fill="#fff" d="M2.85 9.038a3.394 3.394 0 0 1-.312-1.42c0-1.87 1.502-3.389 3.356-3.389.837 0 1.6.311 2.189.823A16.33 16.33 0 0 0 2.85 9.038zM0 19.848a15.18 15.18 0 0 1 3.561-9.796 15.031 15.031 0 0 1 5.295-4.023 14.656 14.656 0 0 1 3.606-1.111v-2.84h-1.3c-.432 0-.78-.465-.78-1.038 0-.574.348-1.039.78-1.039h7.677c.431 0 .78.465.78 1.039 0 .573-.349 1.038-.78 1.038h-1.3v2.84C24.614 6.136 30 12.355 30 19.848c0 8.369-6.715 15.153-15 15.153-8.283 0-15-6.784-15-15.154zm2.546 0c0 6.938 5.587 12.583 12.455 12.583s12.456-5.645 12.456-12.583c0-6.936-5.588-12.58-12.456-12.58-2.162 0-4.196.56-5.969 1.543a12.496 12.496 0 0 0-2.868 2.183 12.598 12.598 0 0 0-3.618 8.854zm1.804 0a10.78 10.78 0 0 1 5.574-9.46 10.524 10.524 0 0 1 5.76-1.276 10.527 10.527 0 0 1 5.271 1.815 10.78 10.78 0 0 1 4.696 8.92 10.779 10.779 0 0 1-5.574 9.46 10.501 10.501 0 0 1-5.077 1.3 10.522 10.522 0 0 1-5.954-1.837 10.785 10.785 0 0 1-4.696-8.923zm2.629 2.615l8.022-3.115v-8.06c-5.56 0-9.442 5.587-8.022 11.175z"/></g></g></svg>